<svg xmlns="http://www.w3.org/2000/svg" xmlns:xlink="http://www.w3.org/1999/xlink" id="visual" width="900" height="350" version="1.1" viewBox="0 0 900 350"><rect width="900" height="350" x="0" y="0" fill="#fff"/><defs><linearGradient id="grad1_0" x1="61.1%" x2="100%" y1="0%" y2="100%"><stop offset="-1.429%" stop-color="#fff" stop-opacity="1"/><stop offset="101.429%" stop-color="#fff" stop-opacity="1"/></linearGradient></defs><defs><linearGradient id="grad2_0" x1="0%" x2="38.9%" y1="0%" y2="100%"><stop offset="-1.429%" stop-color="#fff" stop-opacity="1"/><stop offset="101.429%" stop-color="#fff" stop-opacity="1"/></linearGradient></defs><g><path fill="#b994e9" d="M0 192.5C-19.5 190.4 -39 188.3 -59.5 183.1C-79.9 177.9 -101.3 169.5 -110.5 152.1C-119.7 134.7 -116.9 108.1 -126.2 91.7C-135.6 75.3 -157.2 68.9 -170.2 55.3C-183.3 41.7 -187.9 20.9 -192.5 0L0 0Z" transform="translate(900, 0)"/></g><g><path fill="#b994e9" d="M0 -192.5C20.6 -188.1 41.1 -183.7 56.2 -173.1C71.4 -162.5 81 -145.7 99.3 -136.7C117.7 -127.7 144.6 -126.4 155.7 -113.1C166.8 -99.9 162 -74.6 165.5 -53.8C169 -32.9 180.7 -16.5 192.5 0L0 0Z" transform="translate(0, 350)"/></g></svg>