<svg id="visual" viewBox="0 0 960 540" width="960" height="540" xmlns="http://www.w3.org/2000/svg" xmlns:xlink="http://www.w3.org/1999/xlink" version="1.1"><rect x="0" y="0" width="960" height="540" fill="#ffffff"></rect><path d="M0 330L20 329.8C40 329.7 80 329.3 120 336.5C160 343.7 200 358.3 240 367.8C280 377.3 320 381.7 360 375.2C400 368.7 440 351.3 480 353C520 354.7 560 375.3 600 373.8C640 372.3 680 348.7 720 347.3C760 346 800 367 840 378.7C880 390.3 920 392.7 940 393.8L960 395L960 541L940 541C920 541 880 541 840 541C800 541 760 541 720 541C680 541 640 541 600 541C560 541 520 541 480 541C440 541 400 541 360 541C320 541 280 541 240 541C200 541 160 541 120 541C80 541 40 541 20 541L0 541Z" fill="#fa7268"></path><path d="M0 387L20 392.5C40 398 80 409 120 415.7C160 422.3 200 424.7 240 426.3C280 428 320 429 360 425.7C400 422.3 440 414.7 480 403.5C520 392.3 560 377.7 600 380.8C640 384 680 405 720 406.3C760 407.7 800 389.3 840 379.7C880 370 920 369 940 368.5L960 368L960 541L940 541C920 541 880 541 840 541C800 541 760 541 720 541C680 541 640 541 600 541C560 541 520 541 480 541C440 541 400 541 360 541C320 541 280 541 240 541C200 541 160 541 120 541C80 541 40 541 20 541L0 541Z" fill="#ef5f67"></path><path d="M0 421L20 424.2C40 427.3 80 433.7 120 433C160 432.3 200 424.7 240 417.3C280 410 320 403 360 401.7C400 400.3 440 404.7 480 414.7C520 424.7 560 440.3 600 439.3C640 438.3 680 420.7 720 414.8C760 409 800 415 840 416.7C880 418.3 920 415.7 940 414.3L960 413L960 541L940 541C920 541 880 541 840 541C800 541 760 541 720 541C680 541 640 541 600 541C560 541 520 541 480 541C440 541 400 541 360 541C320 541 280 541 240 541C200 541 160 541 120 541C80 541 40 541 20 541L0 541Z" fill="#e34c67"></path><path d="M0 482L20 479.5C40 477 80 472 120 471.8C160 471.7 200 476.3 240 477.2C280 478 320 475 360 472.3C400 469.7 440 467.3 480 465.7C520 464 560 463 600 459C640 455 680 448 720 447.5C760 447 800 453 840 455.2C880 457.3 920 455.7 940 454.8L960 454L960 541L940 541C920 541 880 541 840 541C800 541 760 541 720 541C680 541 640 541 600 541C560 541 520 541 480 541C440 541 400 541 360 541C320 541 280 541 240 541C200 541 160 541 120 541C80 541 40 541 20 541L0 541Z" fill="#d53867"></path><path d="M0 499L20 501.2C40 503.3 80 507.7 120 509.5C160 511.3 200 510.7 240 510C280 509.3 320 508.7 360 509.3C400 510 440 512 480 511.3C520 510.7 560 507.3 600 503.7C640 500 680 496 720 496.3C760 496.7 800 501.3 840 499C880 496.7 920 487.3 940 482.7L960 478L960 541L940 541C920 541 880 541 840 541C800 541 760 541 720 541C680 541 640 541 600 541C560 541 520 541 480 541C440 541 400 541 360 541C320 541 280 541 240 541C200 541 160 541 120 541C80 541 40 541 20 541L0 541Z" fill="#c62368"></path></svg>